<svg width="40" height="40" viewBox="0 0 40 40" fill="none" xmlns="http://www.w3.org/2000/svg">
<rect x="0.5" y="0.346802" width="39" height="39.0482" rx="8" fill="#F9AA01"/>
<path d="M21.4708 7.871C20.6573 7.17207 19.3362 7.17207 18.5227 7.871L8.11011 16.8173C7.29663 17.5162 7.29663 18.6513 8.11011 19.3502C8.9236 20.0491 10.2447 20.0491 11.0582 19.3502L17.9175 13.4512V30.6057C17.9175 31.5954 18.8481 32.395 20 32.395C21.1519 32.395 22.0825 31.5954 22.0825 30.6057V13.4512L28.9418 19.3446C29.7553 20.0435 31.0764 20.0435 31.8899 19.3446C32.7034 18.6457 32.7034 17.5106 31.8899 16.8117L21.4773 7.86541L21.4708 7.871Z" fill="#1B1426"/>
</svg>
