<svg width="285" height="41" viewBox="0 0 285 41" fill="none" xmlns="http://www.w3.org/2000/svg">
<g filter="url(#filter0_b_10_355)">
<rect y="0.406494" width="285" height="40.0771" rx="8" fill="url(#paint0_linear_10_355)"/>
<rect x="0.5" y="0.906494" width="284" height="39.0771" rx="7.5" stroke="url(#paint1_linear_10_355)"/>
</g>
<path d="M20.312 26.4219H16.36V15.3499H20.312C22.1147 15.3499 23.3093 16.0645 23.896 17.4939C24.2373 18.3152 24.408 19.3925 24.408 20.7259C24.408 23.5099 23.7147 25.2645 22.328 25.9899C21.7733 26.2779 21.1013 26.4219 20.312 26.4219ZM23.144 20.7259C23.144 18.6032 22.6693 17.2805 21.72 16.7579C21.336 16.5445 20.8667 16.4379 20.312 16.4379H17.592V25.3339H20.312C22.2 25.3339 23.144 23.7979 23.144 20.7259ZM26.4645 26.4219V18.4219H27.6645V26.4219H26.4645ZM26.4645 16.6139V15.2219H27.6645V16.6139H26.4645ZM33.0525 30.1819C31.7725 30.1819 30.8765 30.0059 30.3645 29.6539C29.8632 29.3125 29.6125 28.6832 29.6125 27.7659C29.6125 27.3285 29.7085 26.9712 29.9005 26.6939C30.0925 26.4272 30.4178 26.1232 30.8765 25.7819C30.5778 25.5792 30.4285 25.2112 30.4285 24.6779C30.4285 24.4965 30.5618 24.1605 30.8285 23.6699L30.9725 23.4139C30.1298 23.0299 29.7085 22.2245 29.7085 20.9979C29.7085 19.1739 30.7058 18.2619 32.7005 18.2619C33.2125 18.2619 33.6872 18.3152 34.1245 18.4219L34.3645 18.4699L36.7325 18.4059V19.4299L35.2125 19.3979C35.5645 19.7499 35.7405 20.2832 35.7405 20.9979C35.7405 22.0005 35.4898 22.7045 34.9885 23.1099C34.4978 23.5045 33.7192 23.7019 32.6525 23.7019C32.3645 23.7019 32.1032 23.6805 31.8685 23.6379C31.6765 24.1072 31.5805 24.4112 31.5805 24.5499C31.5805 24.8805 31.6818 25.0885 31.8845 25.1739C32.0872 25.2485 32.7005 25.2859 33.7245 25.2859C34.7485 25.2859 35.4845 25.4459 35.9325 25.7659C36.3805 26.0859 36.6045 26.7099 36.6045 27.6379C36.6045 29.3339 35.4205 30.1819 33.0525 30.1819ZM30.7965 27.6699C30.7965 28.2352 30.9512 28.6245 31.2605 28.8379C31.5805 29.0619 32.1618 29.1739 33.0045 29.1739C33.8578 29.1739 34.4658 29.0565 34.8285 28.8219C35.2018 28.5872 35.3885 28.1925 35.3885 27.6379C35.3885 27.0939 35.2552 26.7419 34.9885 26.5819C34.7218 26.4219 34.1992 26.3419 33.4205 26.3419L31.6925 26.2619C31.3405 26.5179 31.1005 26.7419 30.9725 26.9339C30.8552 27.1259 30.7965 27.3712 30.7965 27.6699ZM30.9085 20.9979C30.9085 21.6272 31.0472 22.0752 31.3245 22.3419C31.6125 22.6085 32.0818 22.7419 32.7325 22.7419C33.3832 22.7419 33.8472 22.6085 34.1245 22.3419C34.4018 22.0752 34.5405 21.6272 34.5405 20.9979C34.5405 20.3579 34.4018 19.9045 34.1245 19.6379C33.8472 19.3712 33.3832 19.2379 32.7325 19.2379C32.0818 19.2379 31.6125 19.3765 31.3245 19.6539C31.0472 19.9205 30.9085 20.3685 30.9085 20.9979ZM38.1833 26.4219V18.4219H39.3832V26.4219H38.1833ZM38.1833 16.6139V15.2219H39.3832V16.6139H38.1833ZM45.8273 19.4619H43.2833V23.2859C43.2833 24.2032 43.3473 24.8059 43.4753 25.0939C43.6139 25.3819 43.9339 25.5259 44.4353 25.5259L45.8593 25.4299L45.9393 26.4219C45.2246 26.5392 44.6806 26.5979 44.3073 26.5979C43.4753 26.5979 42.8993 26.3952 42.5793 25.9899C42.2593 25.5845 42.0993 24.8112 42.0993 23.6699V19.4619H40.9633V18.4219H42.0993V15.9739H43.2833V18.4219H45.8273V19.4619ZM52.7326 25.4299L53.1966 25.3819L53.2286 26.3259C52.0126 26.4965 50.9726 26.5819 50.1086 26.5819C48.9566 26.5819 48.1406 26.2512 47.6606 25.5899C47.1806 24.9179 46.9406 23.8779 46.9406 22.4699C46.9406 19.6645 48.0553 18.2619 50.2846 18.2619C51.362 18.2619 52.1673 18.5659 52.7006 19.1739C53.234 19.7712 53.5006 20.7152 53.5006 22.0059L53.4366 22.9179H48.1566C48.1566 23.8032 48.3166 24.4592 48.6366 24.8859C48.9566 25.3125 49.5113 25.5259 50.3006 25.5259C51.1006 25.5259 51.9113 25.4939 52.7326 25.4299ZM52.3006 21.9579C52.3006 20.9765 52.1406 20.2832 51.8206 19.8779C51.5113 19.4725 50.9993 19.2699 50.2846 19.2699C49.5806 19.2699 49.0473 19.4832 48.6846 19.9099C48.3326 20.3365 48.1513 21.0192 48.1406 21.9579H52.3006ZM61.3984 19.3339C60.2357 19.3339 59.6544 19.7392 59.6544 20.5499C59.6544 20.9232 59.7877 21.1899 60.0544 21.3499C60.321 21.4992 60.929 21.6592 61.8784 21.8299C62.8277 21.9899 63.4997 22.2192 63.8944 22.5179C64.289 22.8165 64.4864 23.3765 64.4864 24.1979C64.4864 25.0192 64.2197 25.6219 63.6864 26.0059C63.1637 26.3899 62.3957 26.5819 61.3824 26.5819C60.721 26.5819 59.9424 26.5072 59.0464 26.3579L58.5664 26.2779L58.6304 25.2379C59.8464 25.4192 60.7637 25.5099 61.3824 25.5099C62.001 25.5099 62.4704 25.4139 62.7904 25.2219C63.121 25.0192 63.2864 24.6885 63.2864 24.2299C63.2864 23.7605 63.1477 23.4459 62.8704 23.2859C62.593 23.1152 61.985 22.9552 61.0464 22.8059C60.1077 22.6565 59.441 22.4379 59.0464 22.1499C58.6517 21.8619 58.4544 21.3285 58.4544 20.5499C58.4544 19.7712 58.7264 19.1952 59.2704 18.8219C59.825 18.4485 60.513 18.2619 61.3344 18.2619C61.985 18.2619 62.801 18.3365 63.7824 18.4859L64.2304 18.5659L64.1984 19.5899C63.0144 19.4192 62.081 19.3339 61.3984 19.3339ZM71.7639 25.4299L72.2279 25.3819L72.2599 26.3259C71.0439 26.4965 70.0039 26.5819 69.1399 26.5819C67.9879 26.5819 67.1719 26.2512 66.6919 25.5899C66.2119 24.9179 65.9719 23.8779 65.9719 22.4699C65.9719 19.6645 67.0865 18.2619 69.3159 18.2619C70.3932 18.2619 71.1985 18.5659 71.7319 19.1739C72.2652 19.7712 72.5319 20.7152 72.5319 22.0059L72.4679 22.9179H67.1879C67.1879 23.8032 67.3479 24.4592 67.6679 24.8859C67.9879 25.3125 68.5425 25.5259 69.3319 25.5259C70.1319 25.5259 70.9425 25.4939 71.7639 25.4299ZM71.3319 21.9579C71.3319 20.9765 71.1719 20.2832 70.8519 19.8779C70.5425 19.4725 70.0305 19.2699 69.3159 19.2699C68.6119 19.2699 68.0785 19.4832 67.7159 19.9099C67.3639 20.3365 67.1825 21.0192 67.1719 21.9579H71.3319ZM79.394 18.4219H80.594V26.4219H79.394V25.8619C78.594 26.3419 77.8047 26.5819 77.026 26.5819C75.938 26.5819 75.2127 26.2992 74.85 25.7339C74.498 25.1685 74.322 24.1232 74.322 22.5979V18.4219H75.522V22.5819C75.522 23.7445 75.6233 24.5232 75.826 24.9179C76.0287 25.3125 76.4873 25.5099 77.202 25.5099C77.554 25.5099 77.9113 25.4619 78.274 25.3659C78.6367 25.2592 78.914 25.1579 79.106 25.0619L79.394 24.9179V18.4219ZM91.8576 25.4299L92.3216 25.3819L92.3536 26.3259C91.1376 26.4965 90.0976 26.5819 89.2336 26.5819C88.0816 26.5819 87.2656 26.2512 86.7856 25.5899C86.3056 24.9179 86.0656 23.8779 86.0656 22.4699C86.0656 19.6645 87.1803 18.2619 89.4096 18.2619C90.487 18.2619 91.2923 18.5659 91.8256 19.1739C92.359 19.7712 92.6256 20.7152 92.6256 22.0059L92.5616 22.9179H87.2816C87.2816 23.8032 87.4416 24.4592 87.7616 24.8859C88.0816 25.3125 88.6363 25.5259 89.4256 25.5259C90.2256 25.5259 91.0363 25.4939 91.8576 25.4299ZM91.4256 21.9579C91.4256 20.9765 91.2656 20.2832 90.9456 19.8779C90.6363 19.4725 90.1243 19.2699 89.4096 19.2699C88.7056 19.2699 88.1723 19.4832 87.8096 19.9099C87.4576 20.3365 87.2763 21.0192 87.2656 21.9579H91.4256ZM94.4318 22.5819V21.4619H99.2798V22.5819H94.4318ZM102.711 26.4219H101.511V18.4219H102.695V18.9819C103.495 18.5019 104.274 18.2619 105.031 18.2619C106.023 18.2619 106.717 18.5339 107.111 19.0779C107.463 18.8645 107.917 18.6779 108.471 18.5179C109.037 18.3472 109.533 18.2619 109.959 18.2619C111.026 18.2619 111.741 18.5499 112.103 19.1259C112.477 19.6912 112.663 20.7152 112.663 22.1979V26.4219H111.463V22.2299C111.463 21.1205 111.357 20.3632 111.143 19.9579C110.93 19.5419 110.477 19.3339 109.783 19.3339C109.431 19.3339 109.069 19.3872 108.695 19.4939C108.322 19.5899 108.034 19.6859 107.831 19.7819L107.527 19.9259C107.666 20.2779 107.735 21.0565 107.735 22.2619V26.4219H106.535V22.2939C106.535 21.1419 106.429 20.3632 106.215 19.9579C106.013 19.5419 105.559 19.3339 104.855 19.3339C104.514 19.3339 104.162 19.3872 103.799 19.4939C103.447 19.5899 103.175 19.6859 102.983 19.7819L102.711 19.9259V26.4219ZM120.534 20.8379V24.9339C120.566 25.3285 120.876 25.5632 121.462 25.6379L121.414 26.5819C120.572 26.5819 119.937 26.3685 119.51 25.9419C118.55 26.3685 117.59 26.5819 116.63 26.5819C115.894 26.5819 115.334 26.3739 114.95 25.9579C114.566 25.5419 114.374 24.9445 114.374 24.1659C114.374 23.3872 114.572 22.8165 114.966 22.4539C115.361 22.0805 115.98 21.8512 116.822 21.7659L119.334 21.5259V20.8379C119.334 20.2939 119.217 19.9045 118.982 19.6699C118.748 19.4352 118.428 19.3179 118.022 19.3179C117.169 19.3179 116.284 19.3712 115.366 19.4779L114.87 19.5259L114.822 18.6139C115.996 18.3792 117.036 18.2619 117.942 18.2619C118.849 18.2619 119.505 18.4699 119.91 18.8859C120.326 19.3019 120.534 19.9525 120.534 20.8379ZM115.606 24.1019C115.606 25.0832 116.012 25.5739 116.822 25.5739C117.548 25.5739 118.262 25.4512 118.966 25.2059L119.334 25.0779V22.4379L116.966 22.6619C116.486 22.7045 116.14 22.8432 115.926 23.0779C115.713 23.3125 115.606 23.6539 115.606 24.1019ZM122.902 26.4219V18.4219H124.102V26.4219H122.902ZM122.902 16.6139V15.2219H124.102V16.6139H122.902ZM126.498 26.4219V14.9339H127.698V26.4219H126.498ZM130.025 21.2699V19.4459H131.337V21.2699H130.025ZM130.025 26.4219V24.5979H131.337V26.4219H130.025Z" fill="white"/>
<defs>
<filter id="filter0_b_10_355" x="-6" y="-5.59351" width="297" height="52.077" filterUnits="userSpaceOnUse" color-interpolation-filters="sRGB">
<feFlood flood-opacity="0" result="BackgroundImageFix"/>
<feGaussianBlur in="BackgroundImageFix" stdDeviation="3"/>
<feComposite in2="SourceAlpha" operator="in" result="effect1_backgroundBlur_10_355"/>
<feBlend mode="normal" in="SourceGraphic" in2="effect1_backgroundBlur_10_355" result="shape"/>
</filter>
<linearGradient id="paint0_linear_10_355" x1="0" y1="0.406494" x2="285.021" y2="40.3325" gradientUnits="userSpaceOnUse">
<stop stop-color="#EFEFEF" stop-opacity="0.6"/>
<stop offset="1" stop-color="#EFEFEF" stop-opacity="0.1"/>
</linearGradient>
<linearGradient id="paint1_linear_10_355" x1="0" y1="0.406494" x2="285.021" y2="40.3325" gradientUnits="userSpaceOnUse">
<stop stop-color="white"/>
<stop offset="1" stop-color="white" stop-opacity="0"/>
</linearGradient>
</defs>
</svg>
